<svg id="svg" xmlns="http://www.w3.org/2000/svg" xmlns:xlink="http://www.w3.org/1999/xlink" width="400" height="64.49399656946827" viewBox="0, 0, 400,64.49399656946827"><g id="svgg"><path id="path0" d="M380.138 1.534 C 377.738 1.788,374.418 3.431,371.938 5.593 C 366.237 10.561,367.786 16.020,377.766 26.141 C 385.679 34.165,388.151 37.623,389.035 41.903 C 389.940 46.289,388.162 50.234,384.534 51.890 C 380.156 53.888,375.776 52.910,369.300 48.487 C 368.377 47.857,367.596 47.341,367.565 47.341 C 367.428 47.341,361.966 56.008,362.050 56.092 C 362.101 56.143,363.513 56.658,365.188 57.236 C 366.863 57.814,369.336 58.699,370.685 59.202 C 381.482 63.232,387.166 62.470,393.283 56.173 C 398.336 50.970,400.038 45.340,398.443 39.108 C 396.817 32.754,394.449 29.309,387.787 23.607 C 378.856 15.963,376.681 12.393,379.645 10.242 C 381.418 8.954,383.375 9.268,385.525 11.185 L 386.488 12.043 388.922 8.841 C 390.260 7.080,391.355 5.590,391.355 5.530 C 391.355 5.470,390.876 5.210,390.291 4.954 C 389.707 4.697,388.055 3.910,386.621 3.204 C 383.336 1.587,382.258 1.310,380.138 1.534 M224.357 3.231 C 224.357 3.272,224.575 4.275,224.841 5.461 L 225.325 7.616 225.328 13.310 C 225.330 16.443,225.410 27.588,225.507 38.079 C 225.604 48.569,225.662 57.215,225.636 57.290 C 225.610 57.366,225.309 57.604,224.968 57.820 C 224.627 58.036,224.247 58.406,224.123 58.643 C 223.936 59.002,223.362 61.101,223.440 61.142 C 223.491 61.168,233.776 61.621,234.219 61.617 L 234.681 61.612 234.575 53.208 C 234.516 48.585,234.463 44.638,234.455 44.436 C 234.445 44.153,236.999 40.670,245.592 29.245 C 255.043 16.679,256.742 14.352,256.745 13.969 C 256.748 13.720,256.612 11.226,256.443 8.426 L 256.136 3.335 253.260 3.246 C 249.799 3.138,224.357 3.125,224.357 3.231 M93.858 3.808 C 93.854 4.726,94.151 10.900,94.213 11.213 C 94.355 11.922,96.433 11.399,97.487 10.390 L 98.090 9.811 102.733 9.880 L 107.376 9.949 107.410 33.319 L 107.445 56.689 106.831 57.881 C 106.279 58.953,105.940 60.172,105.936 61.098 C 105.935 61.323,106.294 61.338,111.561 61.338 L 117.187 61.338 117.187 60.814 C 117.187 60.073,116.954 58.842,116.571 57.564 L 116.242 56.467 115.959 34.580 C 115.804 22.542,115.645 12.125,115.606 11.431 L 115.536 10.169 121.130 10.127 C 128.125 10.075,127.767 10.249,128.013 6.786 C 128.088 5.724,128.244 4.696,128.398 4.239 L 128.657 3.473 125.701 3.383 C 124.075 3.334,116.245 3.294,108.302 3.294 L 93.859 3.293 93.858 3.808 M136.569 3.533 L 134.889 3.576 134.889 30.788 L 134.889 58.000 134.199 58.859 C 133.113 60.212,133.016 60.463,133.538 60.567 C 133.771 60.614,136.398 60.652,139.375 60.652 L 144.787 60.652 144.692 60.343 C 144.568 59.943,144.208 59.230,144.085 59.142 C 144.032 59.105,143.900 55.214,143.790 50.497 L 143.592 41.921 145.838 38.696 C 147.074 36.923,148.127 35.456,148.178 35.437 C 148.229 35.418,150.326 40.482,152.837 46.690 L 157.403 57.979 156.894 59.109 C 156.615 59.731,156.412 60.264,156.443 60.293 C 156.475 60.322,159.259 60.391,162.630 60.446 L 168.758 60.547 168.805 59.539 C 168.857 58.388,168.699 57.814,168.131 57.104 C 167.911 56.829,167.697 56.480,167.656 56.329 C 167.614 56.178,164.855 49.189,161.526 40.796 C 158.196 32.404,155.472 25.426,155.472 25.290 C 155.473 25.154,157.881 22.300,160.824 18.947 L 166.175 12.850 166.172 9.204 L 166.168 5.557 164.909 4.494 L 163.650 3.431 150.950 3.460 C 143.965 3.477,137.494 3.509,136.569 3.533 M37.160 3.806 C 36.523 3.856,36.511 3.866,36.004 4.776 C 35.390 5.876,35.295 5.977,31.631 9.393 C 29.994 10.920,28.673 12.050,28.571 12.011 C 28.473 11.973,26.739 10.822,24.717 9.452 L 21.042 6.962 20.872 5.757 L 20.701 4.551 20.059 4.476 C 19.706 4.434,16.947 4.360,13.928 4.311 L 8.439 4.222 6.473 30.344 C 5.391 44.712,4.481 56.560,4.450 56.673 C 4.419 56.787,3.987 57.026,3.489 57.204 L 2.583 57.529 2.681 59.468 C 2.734 60.534,2.805 61.453,2.838 61.509 C 2.871 61.566,5.576 61.612,8.849 61.612 L 14.800 61.612 15.100 61.235 C 15.822 60.327,15.171 57.793,14.065 57.206 C 13.492 56.902,13.459 56.853,13.517 56.400 C 13.551 56.135,13.965 46.053,14.437 33.997 C 15.262 12.952,15.352 11.363,15.666 12.197 C 15.705 12.301,27.820 22.022,28.215 22.266 C 28.293 22.314,30.761 20.103,33.699 17.352 C 39.313 12.094,39.379 12.042,39.388 12.864 C 39.391 13.148,40.156 23.136,41.088 35.060 L 42.782 56.741 42.420 57.064 C 42.221 57.241,41.855 57.562,41.607 57.777 L 41.157 58.167 41.196 59.581 L 41.235 60.995 47.313 61.115 C 50.656 61.181,53.422 61.203,53.461 61.165 C 53.499 61.127,53.419 60.301,53.283 59.330 L 53.036 57.565 52.007 57.159 C 51.441 56.936,50.913 56.689,50.834 56.610 C 50.721 56.498,47.308 5.109,47.336 3.945 C 47.341 3.715,39.636 3.609,37.160 3.806 M280.602 3.842 C 273.654 4.649,266.572 8.719,263.172 13.859 C 257.046 23.119,257.686 43.957,264.376 53.077 C 268.564 58.784,276.486 61.701,286.064 61.062 C 299.028 60.197,305.584 50.363,305.963 31.214 C 306.284 15.010,301.749 7.385,289.880 4.172 C 288.494 3.797,282.748 3.592,280.602 3.842 M348.081 32.132 C 348.127 47.780,348.204 60.623,348.251 60.672 C 348.298 60.721,350.605 60.805,353.379 60.860 L 358.422 60.958 358.422 59.402 L 358.422 57.846 357.556 56.950 L 356.690 56.055 356.909 31.286 L 357.128 6.518 357.727 5.246 C 358.056 4.547,358.281 3.930,358.225 3.874 C 358.170 3.819,355.846 3.753,353.061 3.728 L 347.997 3.682 348.081 32.132 M316.021 3.984 C 314.322 4.032,312.922 4.082,312.909 4.094 C 312.895 4.106,313.091 4.750,313.343 5.523 L 313.801 6.930 313.994 31.218 L 314.188 55.506 313.593 56.154 C 313.266 56.510,312.934 56.971,312.855 57.177 C 312.717 57.542,312.273 60.392,312.347 60.444 C 312.434 60.505,341.823 61.105,341.881 61.046 C 341.931 60.996,340.836 51.599,340.686 50.793 C 340.666 50.685,340.121 51.069,339.367 51.723 C 338.660 52.336,337.981 52.885,337.857 52.944 C 337.734 53.002,334.082 53.016,329.743 52.974 L 321.852 52.899 321.783 29.914 C 321.724 10.302,321.743 6.879,321.908 6.587 C 322.014 6.398,322.525 5.703,323.043 5.043 L 323.986 3.842 321.547 3.869 C 320.206 3.884,317.719 3.936,316.021 3.984 M59.712 30.452 L 59.760 56.926 59.248 57.095 C 58.666 57.287,58.691 57.209,58.452 59.604 C 58.371 60.424,58.343 61.134,58.391 61.182 C 58.504 61.294,90.821 61.540,90.932 61.429 C 90.978 61.384,90.899 59.023,90.756 56.183 L 90.497 51.019 89.057 52.206 L 87.616 53.392 86.587 53.319 C 86.021 53.278,81.389 53.175,76.295 53.089 C 71.201 53.002,66.990 52.894,66.937 52.847 C 66.885 52.800,66.823 45.738,66.800 37.153 L 66.758 21.544 76.756 21.544 L 86.754 21.544 86.654 17.804 C 86.599 15.748,86.526 14.034,86.491 13.997 C 86.455 13.959,81.970 13.877,76.524 13.815 C 71.077 13.753,66.559 13.684,66.484 13.661 C 66.392 13.634,66.392 12.874,66.484 11.383 L 66.621 9.147 69.160 9.177 C 70.556 9.194,74.106 9.265,77.050 9.335 C 79.993 9.405,83.374 9.464,84.563 9.465 L 86.724 9.468 86.724 6.724 L 86.724 3.979 73.194 3.979 L 59.664 3.979 59.712 30.452 M192.506 4.253 C 185.558 5.061,178.476 9.131,175.075 14.271 C 168.950 23.530,169.590 44.369,176.280 53.489 C 180.468 59.196,188.390 62.113,197.968 61.474 C 210.932 60.608,217.488 50.775,217.867 31.625 C 218.188 15.422,213.653 7.797,201.784 4.584 C 200.398 4.209,194.652 4.004,192.506 4.253 M155.334 9.329 C 155.334 9.404,155.244 9.574,155.132 9.707 C 155.021 9.840,152.177 13.962,148.812 18.868 C 145.447 23.774,142.621 27.804,142.531 27.825 C 142.372 27.862,142.345 9.813,142.504 9.365 C 142.581 9.147,155.334 9.111,155.334 9.329 M246.661 11.816 L 246.815 12.586 240.656 21.627 C 234.242 31.042,233.838 31.557,234.013 30.097 C 234.056 29.732,234.133 25.281,234.183 20.204 L 234.273 10.975 240.390 11.011 L 246.507 11.046 246.661 11.816 M287.716 11.397 C 294.760 13.396,297.694 18.543,297.998 29.434 C 298.363 42.543,294.550 49.510,286.053 51.259 C 282.891 51.910,280.390 51.569,277.160 50.045 C 270.572 46.938,267.993 41.930,267.993 32.248 C 267.994 20.366,272.080 13.064,279.657 11.404 C 282.408 10.802,285.608 10.799,287.716 11.397 M199.620 11.809 C 206.664 13.808,209.598 18.955,209.902 29.846 C 210.267 42.955,206.454 49.922,197.957 51.671 C 194.795 52.322,192.294 51.980,189.064 50.457 C 182.476 47.350,179.897 42.342,179.897 32.660 C 179.898 20.777,183.984 13.476,191.561 11.816 C 194.312 11.213,197.512 11.211,199.620 11.809 " stroke="none" fill="#000000" fill-rule="evenodd"></path></g></svg>